# xmcd
#
# Track frame offsets:
#	150
#	11917
#	23892
#	36060
#	46440
#	58127
#	71190
#	84422
#	97520
#	108375
#	120090
#	132122
#	145715
#	158357
#	171432
#	185865
#	197965
#	206935
#	220290
#	234160
#	245032
#	256812
#	269430
#	281635
#	293712
#	305487
#	316657
#
# Disc length: 4351 seconds
# Revision: 0
# Processed by: cddbd v1.5.2PL0 Copyright (c) Steve Scherf et al.
# Submitted via: dBpowerAMP V12.0
#
DISCID=8810fd1b
DTITLE=Bill Monroe - Bluegrass 1950-1958, Volume 2 [Bear Family BCD 15423 (2)]
DYEAR=1989
DGENRE=Country
TTITLE0=Sailor's Plea
TTITLE1=My Carolina Sunshine Girl
TTITLE2=Ben Dewberry's Final Run
TTITLE3=Peach Pickin' Time In Georgia
TTITLE4=Those Gambler's Blues
TTITLE5=Highway Of Sorrow
TTITLE6=Rotation Blues
TTITLE7=Lonesome Truck Driver's Blues
TTITLE8=Sugar Coated Love
TTITLE9=You're Drifting Away
TTITLE10=Cabin Of Love
TTITLE11=Get Down On Your Knees And Pray
TTITLE12=Christmas Time's A-Coming
TTITLE13=The First Whippoorwill
TTITLE14=In The Pines
TTITLE15=Footprints In The Snow
TTITLE16=Walking In Jerusalem
TTITLE17=Memories Of Mother And Dad
TTITLE18=The Little Girl And The Dreadful Snake
TTITLE19=Country Waltz
TTITLE20=Don't Put It Off Til Tomorrow
TTITLE21=My Dying Bed
TTITLE22=A Mighty Pretty Waltz
TTITLE23=Pike County Breakdown
TTITLE24=Wishing Waltz
TTITLE25=I Hope You Have Learned
TTITLE26=Get Up John
EXTD=
EXTT0=
EXTT1=
EXTT2=
EXTT3=
EXTT4=
EXTT5=
EXTT6=
EXTT7=
EXTT8=
EXTT9=
EXTT10=
EXTT11=
EXTT12=
EXTT13=
EXTT14=
EXTT15=
EXTT16=
EXTT17=
EXTT18=
EXTT19=
EXTT20=
EXTT21=
EXTT22=
EXTT23=
EXTT24=
EXTT25=
EXTT26=
PLAYORDER=
